<?xml version="1.0" encoding="UTF-8"?>
<!DOCTYPE svg PUBLIC "-//W3C//DTD SVG 1.1//EN" "http://www.w3.org/Graphics/SVG/1.1/DTD/svg11.dtd">
<!-- Creator: CorelDRAW -->
<svg xmlns="http://www.w3.org/2000/svg" xml:space="preserve" width="84.6666mm" height="84.6666mm" version="1.1" style="shape-rendering:geometricPrecision; text-rendering:geometricPrecision; image-rendering:optimizeQuality; fill-rule:evenodd; clip-rule:evenodd"
viewBox="0 0 8466.66 8466.66"
 xmlns:xlink="http://www.w3.org/1999/xlink"
 xmlns:xodm="http://www.corel.com/coreldraw/odm/2003">
 <defs>
  <style type="text/css">
   <![CDATA[
    .str0 {stroke:#E31E24;stroke-width:8.47;stroke-miterlimit:22.9256}
    .fil0 {fill:#E31E24}
    .fil1 {fill:#2B2A29;fill-rule:nonzero}
   ]]>
  </style>
 </defs>
 <g id="Plan_x0020_1">
  <metadata id="CorelCorpID_0Corel-Layer"/>
  <g id="_2968270148880">
   <rect class="fil0 str0" x="1695.99" y="2023.11" width="169.33" height="3386.67"/>
   <path class="fil1" d="M2425.95 2813.73l0.7 1003.3 -206.72 0 0 -1003.3 206.02 0zm399.58 428.74l0.7 161.1 -456.02 -0.7 0 -160.4 455.32 0zm48.92 -428.74l0 162.04 -504.24 -0.7 0 -161.34 504.24 0z"/>
   <path id="_1" class="fil1" d="M3274.73 2985.42l-272.82 831.61 -219.66 0 372.53 -1003.3 139.94 0 -19.99 171.69zm226.71 831.61l-273.52 -831.61 -22.1 -171.69 141.34 0 374.89 1003.3 -220.61 0zm-12.46 -373.47l0 162.04 -529.87 0 0 -162.04 529.87 0z"/>
   <path id="_2" class="fil1" d="M3901.26 2758.7l0 104.65c0,29.87 -5.65,60.68 -16.94,92.43 -11.28,31.75 -26.34,61.62 -45.15,89.84 -18.82,28.23 -39.51,52.21 -62.09,71.97l-92.9 -53.62c16.94,-27.05 31.52,-56.68 43.28,-88.67 11.99,-31.75 18.11,-68.91 18.11,-111.24l0 -105.36 155.69 0z"/>
   <path id="_3" class="fil1" d="M4726.05 3223.19l-0.7 160.39 -524.47 0 0.71 -161.1 524.46 0.71zm-463.78 -409.46l0.7 1003.3 -206.72 0 0 -1003.3 206.02 0zm610.54 0l0 1003.3 -205.55 0 -0.47 -1003.3 206.02 0z"/>
   <path id="_4" class="fil1" d="M5472.77 2985.42l-272.82 831.61 -219.66 0 372.53 -1003.3 139.94 0 -19.99 171.69zm226.71 831.61l-273.52 -831.61 -22.1 -171.69 141.34 0 374.89 1003.3 -220.61 0zm-12.46 -373.47l0 162.04 -529.87 0 0 -162.04 529.87 0z"/>
   <path id="_5" class="fil1" d="M6107.29 2813.73l174.98 0 257.77 736.6 257.76 -736.6 174.98 0 -362.42 1003.3 -140.65 0 -362.42 -1003.3zm-94.3 0l174.27 0 31.75 718.02 0 285.28 -206.02 0 0 -1003.3zm879.82 0l174.98 0 0 1003.3 -206.73 0 0 -285.28 31.75 -718.02z"/>
   <path class="fil1" d="M5611.4 4467.83l0.28 211.67c-5.5,7.48 -15.38,17.07 -29.91,28.93 -14.4,11.85 -33.59,22.57 -57.44,32.03 -23.84,9.59 -53.2,14.25 -87.91,14.25 -29.49,0 -56.3,-5.22 -80.43,-15.66 -23.99,-10.44 -44.74,-25.83 -62.09,-46.15 -17.5,-20.17 -30.76,-45.01 -40.22,-74.36 -9.31,-29.35 -14.11,-63.08 -14.39,-101.04l0 -152.54c0.28,-36.97 4.8,-69.57 13.4,-98.07 8.75,-28.37 21.31,-52.35 38.1,-71.83 16.65,-19.61 36.69,-34.43 60.12,-44.45 23.42,-10.16 49.67,-15.1 78.88,-15.1 37.25,0 68.86,6.78 94.68,20.18 25.97,13.55 46.15,33.16 60.82,58.99 14.54,25.68 23.43,57.15 26.39,93.98l-32.17 0c-3.11,-29.5 -10.02,-54.9 -21.03,-76.49 -11.15,-21.44 -26.95,-37.95 -47.83,-49.53 -20.75,-11.57 -47.7,-17.35 -80.86,-17.35 -25.26,0 -47.7,4.23 -67.17,12.98 -19.33,8.75 -35.84,21.59 -49.39,38.66 -13.41,17.08 -23.85,37.96 -30.9,62.66 -7.2,24.69 -10.87,52.63 -10.87,84.1l0 154.24c0,32.73 3.81,61.94 11.43,87.34 7.62,25.55 18.49,47.14 32.88,64.92 14.25,17.78 31.61,31.32 51.79,40.49 20.32,9.32 43.18,13.97 68.44,13.97 26.81,0 49.95,-3.66 69.71,-11 19.75,-7.34 35.7,-15.52 48.12,-24.84 12.41,-9.17 21.16,-16.51 26.1,-21.73l0 -169.05 -145.06 -0.42 0 -29.36 176.53 -0.42z"/>
   <path id="_1_0" class="fil1" d="M5776.36 4374.84l0 370.84 -31.05 0 -0.42 -447.32 31.05 0 0.42 76.48zm141.39 -80.58l-2.11 29.78c-3.81,-0.85 -7.91,-1.55 -12.28,-2.12 -4.23,-0.56 -8.75,-0.85 -13.83,-0.85 -19.19,0 -36.26,4.66 -50.94,14.12 -14.82,9.31 -27.09,22.29 -37.11,38.8 -9.88,16.51 -17.36,35.7 -22.3,57.29 -4.94,21.59 -7.76,44.59 -8.18,68.87l-14.11 3.24c0,-30.34 2.68,-58.42 8.32,-84.24 5.5,-25.97 13.83,-48.69 24.98,-68.02 11.15,-19.47 24.97,-34.57 41.77,-45.15 16.65,-10.59 36.4,-15.95 59.26,-15.95 4.94,0 9.88,0.42 14.96,1.13 4.94,0.7 8.75,1.69 11.57,3.1z"/>
   <path id="_2_1" class="fil1" d="M5974.33 4545.58l0 -47.55c0,-33.02 3.67,-62.51 11.15,-88.2 7.48,-25.82 18.21,-47.55 32.03,-65.33 13.97,-17.78 30.77,-31.33 50.52,-40.5 19.62,-9.31 41.63,-13.97 65.9,-13.97 24.84,0 46.99,4.66 66.61,13.97 19.47,9.17 36.26,22.72 49.95,40.5 13.83,17.78 24.41,39.51 31.89,65.33 7.34,25.69 11.15,55.18 11.15,88.2l0 47.55c0,33.02 -3.81,62.52 -11.15,88.48 -7.48,25.97 -18.06,47.84 -31.89,65.76 -13.69,17.92 -30.48,31.47 -49.95,40.92 -19.62,9.31 -41.63,13.97 -66.18,13.97 -24.56,0 -46.57,-4.66 -66.19,-13.97 -19.61,-9.45 -36.4,-23 -50.37,-40.92 -14.11,-17.92 -24.84,-39.79 -32.32,-65.76 -7.48,-25.96 -11.15,-55.46 -11.15,-88.48zm31.47 -47.55l0 47.55c0,25.97 2.68,49.82 8.05,71.69 5.36,22.01 13.4,40.92 24.13,56.87 10.72,15.94 24.27,28.36 40.35,37.25 16.09,8.75 34.86,13.26 56.03,13.26 21.44,0 40.35,-4.51 56.44,-13.26 16.09,-8.89 29.49,-21.31 40.08,-37.25 10.58,-15.95 18.48,-34.86 23.7,-56.87 5.36,-21.87 7.9,-45.72 7.9,-71.69l0 -47.55c0,-25.68 -2.68,-49.25 -8.04,-70.84 -5.36,-21.73 -13.55,-40.5 -24.41,-56.44 -10.87,-16.09 -24.27,-28.51 -40.36,-37.4 -15.94,-9.03 -34.57,-13.55 -55.74,-13.55 -20.88,0 -39.51,4.52 -55.6,13.55 -16.08,8.89 -29.63,21.31 -40.35,37.4 -10.73,15.94 -18.77,34.71 -24.13,56.44 -5.37,21.59 -8.05,45.16 -8.05,70.84z"/>
   <path id="_3_2" class="fil1" d="M6653.23 4642.39l0 -344.03 31.32 0 -0.28 447.32 -30.62 0 -0.42 -103.29zm5.36 -75.36l19.05 -0.7c0,26.67 -2.97,51.5 -8.75,74.36 -5.79,22.86 -14.68,42.76 -26.67,59.69 -12,16.94 -27.38,30.2 -46.29,39.51 -18.9,9.32 -41.2,14.12 -67.16,14.12 -19.05,0 -36.13,-3.11 -51.23,-9.32 -15.24,-6.21 -28.36,-16.08 -39.37,-29.35 -11.01,-13.4 -19.47,-30.9 -25.54,-52.49 -6.07,-21.73 -9.17,-48.12 -9.17,-79.17l0 -285.32 31.47 0 0 286.03c0,25.96 2.39,47.84 7.47,65.76 4.94,17.92 11.72,32.31 20.47,43.04 8.6,10.72 18.76,18.48 30.34,23.28 11.57,4.94 23.98,7.34 37.25,7.34 32.17,0 57.57,-7.48 76.2,-22.3 18.63,-14.96 31.89,-34.29 39.93,-58.14 8.05,-23.84 12,-49.24 12,-76.34z"/>
   <path id="_4_3" class="fil1" d="M6844.72 4384.29l0 533.41 -31.47 0 0 -619.34 29.77 0 1.7 85.93zm266.13 117.41l0 40.64c0.28,35.98 -2.82,67.59 -9.31,94.4 -6.35,26.81 -15.81,48.97 -28.22,66.32 -12.42,17.36 -27.52,30.34 -45.16,38.95 -17.64,8.47 -37.53,12.7 -59.83,12.7 -22.15,0 -41.63,-3.39 -58.7,-10.3 -17.08,-6.91 -31.89,-16.37 -44.31,-28.65 -12.42,-12.27 -22.3,-26.52 -29.78,-42.61 -7.33,-16.09 -12.7,-33.3 -15.66,-51.51l0 -186.83c3.81,-21.02 9.74,-40.36 17.5,-58.14 7.9,-17.78 17.92,-33.02 30.05,-45.86 12.14,-12.84 26.53,-22.86 43.19,-29.91 16.65,-7.2 35.41,-10.87 56.44,-10.87 22.86,0 43.18,4.09 60.96,11.99 17.78,8.05 32.88,20.47 45.3,37.26 12.41,16.79 21.87,38.66 28.22,65.47 6.49,26.96 9.59,59.27 9.31,96.95zm-30.9 40.64l0 -40.64c0,-31.05 -2.4,-58 -7.06,-80.72 -4.65,-22.72 -11.99,-41.63 -21.73,-56.44 -9.73,-14.96 -22.01,-26.11 -36.83,-33.45 -14.67,-7.47 -32.17,-11.29 -52.21,-11.29 -21.59,0 -39.79,3.96 -54.75,11.58 -15.1,7.76 -27.52,17.92 -37.25,30.48 -9.74,12.56 -17.36,25.82 -22.58,39.79 -5.22,14.11 -9.17,27.52 -12,40.22l0.43 176.95c4.37,19.19 11.85,36.83 22.15,52.92 10.3,15.94 24.13,28.78 41.49,38.38 17.36,9.6 38.66,14.53 63.78,14.53 19.47,0 36.69,-3.66 51.37,-10.86 14.81,-7.06 26.95,-18.35 36.68,-33.59 9.6,-15.38 16.8,-34.43 21.45,-57.29 4.66,-22.86 7.06,-49.81 7.06,-80.57z"/>
  </g>
 </g>
</svg>
